<?xml version="1.0" encoding="UTF-8"?>
<svg id="Layer_2" data-name="Layer 2" xmlns="http://www.w3.org/2000/svg" xmlns:xlink="http://www.w3.org/1999/xlink" viewBox="0 0 2117.35 647.8">
  <defs>
    <style>
      .cls-1 {
        fill: #a621e8;
        font-family: Outfit-SemiBold, Outfit;
        font-size: 534.59px;
        font-variation-settings: 'wght' 600;
        font-weight: 600;
      }

      .cls-2 {
        letter-spacing: -.01em;
      }

      .cls-3 {
        fill: #fff;
      }

      .cls-4 {
        fill: #cbcacc;
      }

      .cls-5 {
        letter-spacing: -.02em;
      }

      .cls-6 {
        fill: url(#linear-gradient);
      }
    </style>
    <linearGradient id="linear-gradient" x1="0" y1="300.18" x2="600.36" y2="300.18" gradientUnits="userSpaceOnUse">
      <stop offset=".04" stop-color="#a621e8"/>
      <stop offset=".7" stop-color="#c694f2"/>
    </linearGradient>
  </defs>
  <g id="Layer_1-2" data-name="Layer 1">
    <g>
      <rect class="cls-6" x="0" width="600.36" height="600.36" rx="73.25" ry="73.25"/>
      <path class="cls-4" d="M320.74,368.85v-109.8h-110.14v109.8c0,37.24,14.5,72.26,40.84,98.6,26.34,26.34,61.35,40.84,98.6,40.84h23.59v-110.14h-23.59c-16.15,0-29.29-13.14-29.29-29.29Z"/>
      <path class="cls-4" d="M321.04,231.51c0-37.24-14.5-72.26-40.84-98.6-26.34-26.34-61.35-40.84-98.6-40.84h-39.89v47.89h-2.56v-47.89h-41.77v40.63c1.56-.54,3.23-.83,4.97-.83,5.84,0,10.91,3.28,13.48,8.09,1.14,2.14,1.79,4.58,1.79,7.18s-.65,5.04-1.79,7.18c-2.57,4.82-7.64,8.09-13.48,8.09-1.74,0-3.41-.3-4.97-.83v40.63h41.77v-47.89h2.56v47.89h39.89c16.15,0,29.29,13.14,29.29,29.29v71.57l110.14-.77v-70.81Z"/>
      <path class="cls-3" d="M462.96,131.87c1.74,0,3.41.3,4.97.83v-40.63h-41.77v47.89h-2.56v-47.89h-39.89c-37.24,0-72.26,14.5-98.6,40.84-26.34,26.34-40.84,61.35-40.84,98.6v137.34c0,37.24,14.5,72.26,40.84,98.6,26.34,26.34,61.35,40.84,98.6,40.84h39.89v-47.89h2.56v47.89h41.77v-40.63c-1.56.54-3.23.83-4.97.83-5.84,0-10.91-3.28-13.48-8.09-1.14-2.14-1.79-4.58-1.79-7.18s.65-5.04,1.79-7.18c2.57-4.82,7.64-8.09,13.48-8.09,1.74,0,3.41.3,4.97.83v-40.63h-41.77v47.89h-2.56v-47.89h-39.89c-16.15,0-29.29-13.14-29.29-29.29v-137.34c0-16.15,13.14-29.29,29.29-29.29h39.89v-47.89h2.56v47.89h41.77v-40.63c-1.56.54-3.23.83-4.97.83-5.84,0-10.91-3.28-13.48-8.09-1.14-2.14-1.79-4.58-1.79-7.18s.65-5.04,1.79-7.18c2.57-4.82,7.64-8.09,13.48-8.09Z"/>
      <text class="cls-1" transform="translate(681.99 508.28)"><tspan x="0" y="0">tic</tspan><tspan class="cls-5" x="603" y="0">k</tspan><tspan class="cls-2" x="873.51" y="0">e</tspan><tspan x="1155.77" y="0">x</tspan></text>
    </g>
  </g>
</svg>